<svg xmlns="http://www.w3.org/2000/svg" width="16.837" height="16.752" viewBox="0 0 16.837 16.752"><defs><style>.a{fill:#1c1e29;}</style></defs><g transform="translate(0 -0.261)"><path class="a" d="M15.54,48.053a.419.419,0,0,0-.419.419V52.2a1.259,1.259,0,0,1-1.258,1.258H2.1A1.259,1.259,0,0,1,.839,52.2V41.268A1.259,1.259,0,0,1,2.1,40.011H5.82a.419.419,0,0,0,0-.839H2.1a2.1,2.1,0,0,0-2.1,2.1V52.2a2.1,2.1,0,0,0,2.1,2.1H13.862a2.1,2.1,0,0,0,2.1-2.1V48.472A.419.419,0,0,0,15.54,48.053Zm0,0" transform="translate(0 -37.279)"/><path class="a" d="M119.446.813a1.887,1.887,0,0,0-2.669,0L109.3,8.294a.419.419,0,0,0-.108.185l-.984,3.552a.419.419,0,0,0,.516.516l3.552-.984a.419.419,0,0,0,.185-.108l7.481-7.481a1.889,1.889,0,0,0,0-2.669ZM110.21,8.567l6.123-6.123,1.975,1.975-6.123,6.123Zm-.394.791,1.578,1.578-2.182.6Zm9.529-5.977-.445.445-1.975-1.975.445-.445a1.048,1.048,0,0,1,1.482,0l.492.492A1.05,1.05,0,0,1,119.345,3.381Zm0,0" transform="translate(-103.653)"/></g></svg>